<svg width="24" height="25" viewBox="0 0 24 25" fill="none" xmlns="http://www.w3.org/2000/svg">
<path d="M2.85791 4.40332H4.54208C5.29445 4.40332 5.67063 4.40332 5.95385 4.60763C6.23707 4.81193 6.35598 5.16866 6.59379 5.88211L7.18185 7.64628" stroke="#141C24" stroke-width="1.5" stroke-linecap="round"/>
<path d="M17.9918 18.4558H7.77648C7.61974 18.4558 7.54083 18.4558 7.48029 18.4494C7.3302 18.4326 7.18528 18.3846 7.05488 18.3084C6.92448 18.2322 6.81148 18.1296 6.72318 18.0071C6.63488 17.8845 6.57324 17.7449 6.54222 17.5971C6.51119 17.4493 6.51149 17.2966 6.54308 17.1489C6.56803 17.0533 6.59725 16.9588 6.63064 16.8657C6.68685 16.6992 6.71387 16.616 6.74522 16.5414C6.8991 16.1729 7.15207 15.8541 7.47606 15.6206C7.80006 15.387 8.18242 15.2478 8.58073 15.2183C8.66073 15.2129 8.74829 15.2129 8.92341 15.2129H14.7488" stroke="#141C24" stroke-width="1.5" stroke-linecap="round" stroke-linejoin="round"/>
<path d="M14.4018 15.2134H11.1145C9.73087 15.2134 9.03904 15.2134 8.49855 14.8567C7.95697 14.4999 7.68456 13.8643 7.13975 12.5931L6.95706 12.1672C6.08146 10.1241 5.64475 9.10473 6.1247 8.37507C6.60682 7.64648 7.71807 7.64648 9.93842 7.64648H15.646C18.1323 7.64648 19.3743 7.64648 19.8435 8.45398C20.3115 9.26148 19.6954 10.3403 18.462 12.4979L18.1561 13.0352C17.5486 14.0978 17.2448 14.6296 16.7411 14.9215C16.2384 15.2134 15.6255 15.2134 14.4018 15.2134Z" stroke="#141C24" stroke-width="1.5" stroke-linecap="round"/>
<path d="M17.4512 22.2391C18.0482 22.2391 18.5322 21.7551 18.5322 21.1581C18.5322 20.5611 18.0482 20.0771 17.4512 20.0771C16.8542 20.0771 16.3702 20.5611 16.3702 21.1581C16.3702 21.7551 16.8542 22.2391 17.4512 22.2391Z" fill="#141C24"/>
<path d="M7.72234 22.2391C8.31935 22.2391 8.80333 21.7551 8.80333 21.1581C8.80333 20.5611 8.31935 20.0771 7.72234 20.0771C7.12533 20.0771 6.64136 20.5611 6.64136 21.1581C6.64136 21.7551 7.12533 22.2391 7.72234 22.2391Z" fill="#141C24"/>
</svg>
