<svg width="77" height="35" viewBox="0 0 77 35" fill="none" xmlns="http://www.w3.org/2000/svg">
<path d="M11.76 3.88329V13.5713H1.022V3.88329H3.052V11.9473H5.432V3.88329H7.35V11.9473H9.744V3.88329H11.76ZM21.1132 13.5713H19.0832V9.67929C19.0832 8.35396 19.1812 7.11262 19.3772 5.95529L16.3252 13.5713H13.8052V3.88329H15.8352V7.81729C15.8352 8.60129 15.8072 9.25462 15.7512 9.77729C15.7045 10.2906 15.6345 10.86 15.5412 11.4853L18.6492 3.88329H21.1132V13.5713ZM33.6008 8.67129C33.6008 10.062 33.1994 11.1166 32.3968 11.8353C31.5941 12.5446 30.4788 12.9226 29.0508 12.9693V14.1033H27.0488V12.9553C25.6021 12.89 24.4821 12.5073 23.6888 11.8073C22.8954 11.098 22.4988 10.0666 22.4988 8.71329C22.4988 7.32262 22.9001 6.27262 23.7028 5.56329C24.5054 4.84462 25.6208 4.46196 27.0488 4.41529V3.36529H29.0508V4.42929C30.4974 4.49462 31.6174 4.88196 32.4108 5.59129C33.2041 6.29129 33.6008 7.31796 33.6008 8.67129ZM28.9668 11.6533C29.8534 11.5973 30.4974 11.3313 30.8988 10.8553C31.3001 10.3793 31.5008 9.65129 31.5008 8.67129C31.5008 7.70996 31.2954 6.99129 30.8848 6.51529C30.4741 6.03929 29.8348 5.77796 28.9668 5.73129V11.6533ZM24.5988 8.71329C24.5988 9.67462 24.8041 10.3933 25.2148 10.8693C25.6254 11.3453 26.2648 11.6066 27.1328 11.6533V5.73129C26.2461 5.78729 25.6021 6.05329 25.2008 6.52929C24.7994 7.00529 24.5988 7.73329 24.5988 8.71329ZM40.9168 3.88329L40.6928 5.49329H38.2428V13.5713H36.1848V5.49329H33.6088V3.88329H40.9168Z" fill="#F4511E"/>
<path d="M4.018 20.8833C5.278 20.8833 6.25333 21.1446 6.944 21.6673C7.644 22.19 7.994 22.9693 7.994 24.0053C7.994 25.088 7.64867 25.9046 6.958 26.4553C6.26733 26.9966 5.34333 27.2673 4.186 27.2673H3.08V30.5713H1.022V20.8833H4.018ZM4.018 25.7553C4.61533 25.7553 5.07267 25.62 5.39 25.3493C5.70733 25.0786 5.866 24.6306 5.866 24.0053C5.866 22.9133 5.24067 22.3673 3.99 22.3673H3.08V25.7553H4.018ZM11.4062 20.8833V30.5713H9.34817V20.8833H11.4062ZM19.4834 20.8833V22.4653L15.1434 28.9053H19.5534L19.3294 30.5713H12.7354V29.0173L17.1594 22.5073H13.1834V20.8833H19.4834ZM26.9483 20.8833V22.4653L22.6083 28.9053H27.0183L26.7943 30.5713H20.2003V29.0173L24.6243 22.5073H20.6483V20.8833H26.9483ZM33.5991 30.5713L33.0531 28.4013H30.0151L29.4691 30.5713H27.3271L30.3091 20.8833H32.8151L35.7831 30.5713H33.5991ZM30.4071 26.8753H32.6611L31.5271 22.4093L30.4071 26.8753Z" fill="#F4511E"/>
<path d="M60.9996 20.238L59.6663 21.5713M63.333 25.9046L61.6663 27.798M68.6996 9.10996C64.728 9.94434 61.0851 11.9166 58.2153 14.7861C55.3456 17.6557 53.373 21.2984 52.5383 25.27M70.0663 13.9713C68.7049 14.3426 67.5467 15.2395 66.8465 16.4648C66.1464 17.69 65.9617 19.1432 66.333 20.5046C66.7043 21.8661 67.6012 23.0243 68.8264 23.7244C70.0517 24.4245 71.5049 24.6093 72.8663 24.238M74.285 29.214C74.3485 29.4417 74.3504 29.6821 74.2904 29.9108C74.2304 30.1394 74.1107 30.348 73.9435 30.5152C73.7764 30.6823 73.5678 30.802 73.3391 30.862C73.1105 30.922 72.87 30.9202 72.6423 30.8566L48.6423 24.19C48.4736 24.143 48.3158 24.0632 48.1779 23.9552C48.04 23.8472 47.9247 23.7131 47.8387 23.5606C47.7526 23.4081 47.6975 23.2401 47.6763 23.0662C47.6552 22.8923 47.6686 22.716 47.7156 22.5473C48.9266 18.1876 51.2444 14.2151 54.4439 11.0156C57.6434 7.81608 61.6159 5.49829 65.9756 4.2873C66.1443 4.24024 66.3207 4.22689 66.4945 4.248C66.6684 4.26911 66.8364 4.32427 66.9889 4.41032C67.1415 4.49637 67.2756 4.61164 67.3836 4.74953C67.4916 4.88742 67.5713 5.04524 67.6183 5.21396L74.285 29.214Z" stroke="#F4511E" stroke-width="2" stroke-linecap="round" stroke-linejoin="round"/>
</svg>
