<svg width="24" height="24" viewBox="0 0 24 24" fill="none" xmlns="http://www.w3.org/2000/svg">
<path d="M21.085 3.53002C20.7923 3.23729 20.3177 3.23728 20.025 3.52998L12.306 11.248L4.5965 3.53663C4.30356 3.24362 3.82852 3.2437 3.53569 3.53681C3.2431 3.82968 3.24318 4.30424 3.53587 4.597L11.246 12.309L3.52997 20.025C3.23719 20.3178 3.23697 20.7924 3.52947 21.0855C3.82238 21.3789 4.29781 21.3791 4.59097 21.0859L12.306 13.369L20.032 21.094C20.3247 21.3867 20.7993 21.3867 21.092 21.094C21.3847 20.8013 21.3847 20.3267 21.092 20.034L13.368 12.309L21.0851 4.59005C21.3778 4.2973 21.3777 3.82273 21.085 3.53002Z" fill="#CED2DA"/>
</svg>
