<svg width="24" height="25" viewBox="0 0 24 25" fill="none" xmlns="http://www.w3.org/2000/svg">
<path d="M15.9239 16.6951C16.2375 16.4099 16.2492 15.9204 15.9494 15.6207L12.7 12.3713V7.32129C12.7 6.90707 12.3642 6.57129 11.95 6.57129C11.5358 6.57129 11.2 6.90708 11.2 7.32129V12.5571C11.2 12.8223 11.3054 13.0766 11.4929 13.2642L14.8994 16.6707C15.1797 16.9509 15.6306 16.9617 15.9239 16.6951Z" fill="#141C24"/>
<path d="M12 22.5713C10.6333 22.5713 9.34167 22.3088 8.125 21.7838C6.90833 21.2588 5.84583 20.5421 4.9375 19.6338C4.02917 18.7255 3.3125 17.663 2.7875 16.4463C2.2625 15.2296 2 13.9296 2 12.5463C2 11.1796 2.2625 9.88796 2.7875 8.67129C3.3125 7.45462 4.02917 6.39629 4.9375 5.49629C5.84583 4.59629 6.90833 3.88379 8.125 3.35879C9.34167 2.83379 10.6417 2.57129 12.025 2.57129C13.3917 2.57129 14.6833 2.83379 15.9 3.35879C17.1167 3.88379 18.175 4.59629 19.075 5.49629C19.975 6.39629 20.6875 7.45462 21.2125 8.67129C21.7375 9.88796 22 11.188 22 12.5713C22 13.938 21.7375 15.2296 21.2125 16.4463C20.6875 17.663 19.975 18.7255 19.075 19.6338C18.175 20.5421 17.1167 21.2588 15.9 21.7838C14.6833 22.3088 13.3833 22.5713 12 22.5713ZM12 21.0713C14.3667 21.0713 16.375 20.2421 18.025 18.5838C19.675 16.9255 20.5 14.9213 20.5 12.5713C20.5 10.2046 19.675 8.19629 18.025 6.54629C16.375 4.89629 14.3667 4.07129 12 4.07129C9.65 4.07129 7.64583 4.89629 5.9875 6.54629C4.32917 8.19629 3.5 10.2046 3.5 12.5713C3.5 14.9213 4.32917 16.9255 5.9875 18.5838C7.64583 20.2421 9.65 21.0713 12 21.0713Z" fill="#141C24"/>
</svg>
